<?xml version="1.0" encoding="utf-8"?>
<!-- Generator: Adobe Illustrator 27.5.0, SVG Export Plug-In . SVG Version: 6.00 Build 0)  -->
<svg version="1.1" id="Capa_1" xmlns="http://www.w3.org/2000/svg" xmlns:xlink="http://www.w3.org/1999/xlink" x="0px" y="0px"
	 viewBox="0 0 831.8 285" style="enable-background:new 0 0 831.8 285;" xml:space="preserve">
<style type="text/css">
	.st0{fill:#FFFFFF;}
</style>
<g>
	<path class="st0" d="M12.6,0c3.3,0,6.1,1.1,8.4,3.3c2.4,2.4,3.5,5.2,3.5,8.6v102.7c25.5-22.8,51.1-34.2,76.8-34.2
		c28,0,51.9,9.9,71.7,29.7s29.7,43.7,29.7,71.7c0,28-9.9,51.9-29.7,71.7s-43.7,29.7-71.7,29.7c-28,0-51.9-9.8-71.5-29.5
		C10.1,234,0.1,210.3,0,182.5V12c0-3.4,1.2-6.3,3.5-8.6C5.9,1.1,8.7,0,12,0H12.6z M101.4,105.5c-21.2,0-39.4,7.5-54.4,22.6
		c-14.9,15.1-22.4,33.2-22.4,54.4c0,21.1,7.5,39.2,22.4,54.2c15.1,15.1,33.2,22.6,54.4,22.6c21.3,0,39.4-7.5,54.2-22.6
		c15.1-15.1,22.6-33.1,22.6-54.2c0-21.2-7.5-39.4-22.6-54.4C140.8,113,122.7,105.5,101.4,105.5z"/>
	<path class="st0" d="M260.7,271.3c0,3.3-1.2,6.1-3.5,8.4c-2.4,2.4-5.2,3.5-8.4,3.5h-0.6c-3.3,0-6.1-1.2-8.4-3.5
		c-2.4-2.4-3.5-5.2-3.5-8.4V163.8c0-23,8.1-42.7,24.4-58.9c16.2-16.2,35.9-24.4,58.9-24.4c22.9,0,42.5,8.1,58.7,24.4
		c16.2,16.2,24.4,35.9,24.4,58.9v107.5c0,3.3-1.2,6.1-3.5,8.4c-2.4,2.4-5.2,3.5-8.4,3.5h-0.4c-3.4,0-6.3-1.2-8.6-3.5
		c-2.4-2.4-3.5-5.2-3.5-8.4V163.8c0-16.1-5.7-29.9-17.1-41.5c-11.5-11.5-25.3-17.3-41.4-17.3c-16.2,0-30.1,5.8-41.6,17.3
		c-11.4,11.5-17.1,25.3-17.1,41.5V271.3z"/>
	<path class="st0" d="M454.4,0c3.3,0,6.1,1.1,8.4,3.3c2.4,2.4,3.5,5.2,3.5,8.6v147.9h19.3c19.6,0,36.9-6.6,51.7-19.8
		c14.5-13.2,22.8-29.5,24.8-48.7c0.3-3,1.6-5.6,3.9-7.7c2.4-2.1,5-3.1,8.1-3.1h0.6c3.5,0,6.5,1.3,8.8,3.9c2.4,2.6,3.3,5.8,2.9,9.4
		c-2.9,29.5-18.6,54.9-47.1,76.2c19.9,12,34.2,25.6,42.8,40.7c9,15.6,13.6,32.4,13.6,50.5v10c0,3.3-1.2,6.1-3.5,8.4
		c-2.4,2.4-5.2,3.5-8.4,3.5h-0.6c-3.3,0-6.1-1.2-8.4-3.5c-2.4-2.4-3.5-5.2-3.5-8.4v-10c-0.1-21.2-7.7-39.2-22.6-54
		c-15.1-14.9-33.1-22.4-54.2-22.4h-27.9v86.4c0,3.3-1.2,6.1-3.5,8.4c-2.4,2.4-5.2,3.5-8.4,3.5h-0.6c-3.3,0-6.1-1.2-8.4-3.5
		c-2.4-2.4-3.5-5.2-3.5-8.4V12c0-3.4,1.2-6.3,3.5-8.6c2.4-2.2,5.2-3.3,8.4-3.3H454.4z"/>
	<path class="st0" d="M802.1,110.2c19.8,19.8,29.7,43.7,29.7,71.7v89.4c0,3.3-1.2,6.1-3.5,8.4c-2.4,2.4-5.2,3.5-8.4,3.5h-0.6
		c-3.3,0-6.1-1.2-8.4-3.5c-2.4-2.4-3.5-5.2-3.5-8.4v-22.2c-25.7,22.8-51.3,34.2-76.8,34.2c-28,0-51.9-9.9-71.7-29.7
		c-19.8-19.8-29.7-43.7-29.7-71.7c0-28,9.9-51.9,29.7-71.7c19.8-19.8,43.7-29.7,71.7-29.7C758.4,80.5,782.3,90.4,802.1,110.2z
		 M676,127.7c-14.9,15.1-22.4,33.1-22.4,54.2c0,21.2,7.5,39.4,22.4,54.4c15.1,14.9,33.2,22.4,54.4,22.4c21.2,0,39.3-7.5,54.2-22.4
		c15.1-15.1,22.6-33.2,22.6-54.4c0-21.1-7.5-39.2-22.6-54.2c-14.8-15.1-32.9-22.6-54.2-22.6C709.2,105.1,691,112.6,676,127.7z"/>
	<path class="st0" d="M100.6,115.8c-36.8,0-66.6,29.8-66.6,66.6S63.8,249,100.6,249s66.6-29.8,66.6-66.6S137.4,115.8,100.6,115.8z
		 M137.5,194.5v-23.6l7.3-4.2v-8.4l9.9-5.1c4.7,8.7,7.4,18.6,7.4,29.2c0,10.6-2.7,20.5-7.4,29.2l-11-6.6v-6.8L137.5,194.5z
		 M141.9,158.2v6.6l-6.2,3.7l-5.8-3.6V158l5.8-3.5L141.9,158.2z M100.6,184.9l14.9,8.5l-15.2,8.4l-14.4-8L100.6,184.9z M98.4,121
		v60.8L84,190.2v-16.7l12.3-6.9l-1.9-3.2l-14.3,7.8v23.3l20.5,12l20.1-11.7v-23.6l-13.9-7.8l-2,3.4l12,6.5v16.3l-14.1-7.7V121
		c21.3,0.7,39.8,12.2,50.3,29.2l-9.7,5l-7.5-4.5l-9.1,5.9v10l7.3,4.3v23.9l-5.9,3.9v6.2l-20.4,11.3l-7.3-4.4l-7.1,4.6l-19.6-10.9
		v-7.3l-6.6-4v-23.4l7.4-4.2v-10.5l-9.1-5.5l-6.8,4.5l-10.2-5.1C58.8,133.2,77.3,121.7,98.4,121z M100.4,229.6l-5.8-3.6v-6.9
		l5.8-3.5l6.2,3.7v6.6L100.4,229.6z M59.6,158l5.8-3.5l6.2,3.7v6.6l-6.2,3.7l-5.8-3.6V158z M46.6,153.1l9.7,4.9v8.7l7.3,4.3V195
		l-5.6,3.7v6.4l-11.3,6.8c-4.8-8.8-7.6-18.8-7.6-29.5C39.2,171.8,41.9,161.8,46.6,153.1z M48.5,214.9l11.1-6.7l6.3,3.6l5.9-3.4
		l19.5,10.9v8.5l7.3,4.3v11.8C77.5,243.2,59,231.8,48.5,214.9z M102.1,243.8V232l7.3-4.2v-8.6l20-11.1l6.4,3.7l6.4-3.7l10.7,6.4
		C142.4,231.7,123.6,243.3,102.1,243.8z"/>
</g>
</svg>
